<?xml version="1.0" encoding="UTF-8"?>
<svg id="_Слой_1" data-name="Слой 1" xmlns="http://www.w3.org/2000/svg" viewBox="0 0 424.26 483.12">
  <defs>
    <style>
      .cls-1, .cls-2 {
        fill: none;
        stroke: #fff;
        stroke-miterlimit: 10;
        stroke-width: 24px;
      }

      .cls-2 {
        stroke-linecap: round;
      }
    </style>
  </defs>
  <circle class="cls-1" cx="212.13" cy="147.4" r="135.4"/>
  <path class="cls-1" d="m412.26,454.34c0,3.06-.07,6.1-.2,9.12-.19,4.29-3.78,7.65-8.07,7.65H20.28c-4.3,0-7.88-3.36-8.07-7.65-.14-3.02-.2-6.07-.2-9.12,0-67.33,33.26-126.91,84.25-163.18,2.86-2.03,6.69-1.97,9.51.11,29.74,22.03,66.53,35.05,106.38,35.05s76.64-13.03,106.38-35.05c2.82-2.09,6.65-2.14,9.51-.11,50.99,36.28,84.25,95.85,84.25,163.18Z"/>
  <line class="cls-2" x1="212.13" y1="73.9" x2="212.13" y2="220.91"/>
  <line class="cls-2" x1="285.64" y1="147.4" x2="138.62" y2="147.4"/>
</svg>