<?xml version="1.0" encoding="UTF-8"?>
<svg id="_Слой_1" data-name="Слой 1" xmlns="http://www.w3.org/2000/svg" viewBox="0 0 251.41 249.26">
  <defs>
    <style>
      .cls-1 {
        fill: #fff;
      }
    </style>
  </defs>
  <path class="cls-1" d="m236.4,145.04c-8.57-8.64-19.89-13.9-31.9-15.01,10.37-9.33,16.92-22.79,16.92-37.83,0-28.14-22.82-50.94-50.98-50.94s-48.92,20.82-50.83,47.2c23.93,10.34,40.72,34.17,40.72,61.84,0,10.1-2.3,19.98-6.58,28.94,6.16,3.22,11.84,7.38,16.79,12.37,12.7,12.77,19.91,30.44,19.77,48.44v.37s-.02.31-.02.31l-.45,8.52h61.06l.5-67.48c.1-13.76-5.29-26.97-15.01-36.73Z"/>
  <path class="cls-1" d="m126.98,188.16c10.37-9.32,16.94-22.79,16.94-37.83,0-28.14-22.83-50.95-50.99-50.95s-50.99,22.81-50.99,50.95c0,15.01,6.54,28.47,16.89,37.8-26.51,2.05-47.45,23.99-47.64,51l-.5,10.14h162.7l.5-9.38c.1-13.76-5.3-26.96-15.01-36.73-8.58-8.64-19.89-13.88-31.9-15Z"/>
  <path class="cls-1" d="m32.88,61.27v18.93c0,7.84,6.38,14.2,14.22,14.2s14.22-6.37,14.22-14.2v-18.93h18.92c7.85,0,14.22-6.37,14.22-14.21s-6.37-14.21-14.22-14.21h-18.92V14.2c0-7.84-6.36-14.2-14.22-14.2s-14.22,6.36-14.22,14.2v18.64H14.22c-7.86,0-14.22,6.37-14.22,14.21s6.36,14.21,14.22,14.21h18.67Z"/>
</svg>