<?xml version="1.0" encoding="UTF-8"?>
<svg id="_Слой_1" data-name="Слой 1" xmlns="http://www.w3.org/2000/svg" viewBox="0 0 249.63 249.69">
  <defs>
    <style>
      .cls-1 {
        fill: #fff;
      }
    </style>
  </defs>
  <path class="cls-1" d="m129.25,90.18c10.19,10.18,20.15,20.13,30.23,30.2-.58.62-1.19,1.3-1.83,1.95-40.03,40.06-80.06,80.11-120.11,120.16-7.24,7.24-16.4,9.12-24.94,5.22-13.04-5.96-16.72-22.63-7.38-33.5.6-.7,1.26-1.37,1.91-2.02,40.11-40.11,80.22-80.22,120.34-120.32.58-.58,1.2-1.13,1.79-1.67Z"/>
  <path class="cls-1" d="m202.28,83.63c-.04,3.37-1.17,6.36-3.55,8.77-6.13,6.21-12.25,12.42-18.51,18.5-5.18,5.03-12.62,5.03-17.76,0-7.96-7.79-15.83-15.67-23.65-23.6-5.14-5.22-5.15-12.76-.05-17.98,5.97-6.11,12.01-12.14,18.11-18.12,5.34-5.24,12.86-5.29,18.2-.04,7.88,7.74,15.64,15.6,23.42,23.44,2.46,2.47,3.75,5.48,3.8,9.03Z"/>
  <path class="cls-1" d="m158.36,39.27c-9.31,8.54-18.32,16.82-27.39,25.14-.05-.01-.29,0-.38-.11-13.85-17.86-32.15-30.14-51.7-40.69-9.69-5.23-19.87-9.57-29.86-14.22-2.32-1.08-4.07-2.43-3.67-5.19.4-2.76,2.35-3.68,4.98-3.86,22.61-1.62,44.12,2.79,64.78,11.82,15.41,6.74,29.45,15.7,42.34,26.48.28.24.6.43.9.65Z"/>
  <path class="cls-1" d="m185.02,118.88c8.51-9.27,16.78-18.28,25.24-27.48.62.73,1.4,1.61,2.14,2.52,17.01,21.02,29.36,44.33,34.69,71.04,2.26,11.34,3.09,22.79,2.2,34.35-.2,2.63-1.14,4.57-3.88,4.99-2.78.43-4.19-1.34-5.16-3.68-9-21.89-20.01-42.65-34.68-61.32-5.98-7.61-12.69-14.53-20.55-20.41Z"/>
</svg>