<?xml version="1.0" encoding="UTF-8"?>
<svg id="Capa_1" data-name="Capa 1" xmlns="http://www.w3.org/2000/svg" viewBox="0 0 512 512">
  <defs>
    <style>
      .cls-1 {
        fill: #fff;
      }
    </style>
  </defs>
  <path class="cls-1" d="m487.19,372.87c.15-.21.3-.42.43-.64.02-.04.05-.07.08-.12.02-.03.04-.07.06-.1.02-.03.04-.07.06-.1,31.47-53.77,9.74-142.84-54.01-223.45l2.13-2.13c9.67-9.69,9.67-25.37,0-35.06l-35.19-35.19c-9.69-9.66-25.37-9.66-35.06,0l-2.13,2.13C282.86,14.39,193.67-7.34,139.91,24.32c-.07.04-.13.09-.2.14-.17.11-.34.22-.5.34-.11.08-.22.17-.33.26-.15.12-.29.25-.43.38-.16.15-.31.3-.45.46-.13.14-.25.28-.37.43-.1.12-.18.25-.27.38-.09.13-.18.26-.26.4-.08.13-.16.27-.24.4-.08.15-.15.3-.22.46-.11.24-.21.49-.3.74-.05.14-.1.28-.14.43-.05.18-.09.36-.13.54-.03.12-.05.24-.07.37-.03.19-.06.39-.08.58,0,.03,0,.06-.01.09,0,.09,0,.17,0,.26,0,.16-.03.32-.03.49,0,.17.03.33.04.5.01.15.02.3.03.44.02.17.05.33.08.49.03.15.06.3.09.45.04.16.08.31.13.47.05.16.1.31.16.46.05.14.1.29.16.43.11.25.24.5.37.73.07.13.16.26.24.38.09.14.18.27.27.4.09.12.18.24.28.36.12.15.25.29.38.43.08.09.16.18.25.27.21.2.44.4.67.58.08.06.17.12.25.18.2.14.4.28.61.4.05.03.09.06.13.09.03.02.06.02.08.04.58.32,1.2.57,1.85.74.06.02.12.03.18.04.27.06.54.12.82.15.06,0,.12.02.19.02.08,0,.16.02.24.03,50.38,4.12,114.89,35.77,173.88,85.06-3.72,4.44-5.79,10.07-5.79,15.92,0,3.76.86,7.42,2.45,10.75L19.62,445.62c-9.47,9.46-12.3,23.69-7.18,36.05,5.12,12.36,17.19,20.42,30.57,20.41,8.78.02,17.2-3.47,23.4-9.68L360.73,198.09c3.32,1.6,7,2.46,10.76,2.44,5.85.02,11.48-2.05,15.92-5.79,49.29,58.99,80.94,123.5,85.06,173.88,0,.09.02.18.04.28,0,.04.01.08.02.13.04.33.1.65.18.97,0,0,0,.01,0,.02.18.69.45,1.35.79,1.96,0,.01.01.03.02.04,0,0,.01.02.02.03.34.6.76,1.14,1.24,1.63.04.04.08.08.12.12.47.46,1,.87,1.57,1.21.05.03.1.05.14.08.26.15.53.28.81.4.03.01.05.03.08.04.31.13.62.24.95.33.04.01.09.02.13.03.27.07.55.13.83.17.08.01.15.02.23.03.33.04.65.07.99.07.22,0,.45,0,.68-.02.09,0,.18-.03.27-.04.09-.01.18-.02.27-.04.25-.04.5-.09.74-.15.08-.02.15-.03.23-.05.32-.09.62-.19.92-.31.03-.01.05-.03.08-.04.26-.11.52-.24.77-.38.09-.05.17-.1.26-.15.19-.12.38-.24.56-.37.08-.06.17-.12.25-.18.24-.19.47-.38.69-.6.05-.05.09-.1.13-.14.18-.18.35-.37.51-.57.06-.08.12-.16.19-.25Zm-3.59-36.59c-11.82-47.93-41.44-101.92-84.49-153.12l23.01-23.01c47.77,61.09,70.54,128.21,61.48,176.13Zm-131.73-246.38l-23.01,23.01c-51.2-43.05-105.2-72.67-153.13-84.49,47.92-9.07,115.04,13.7,176.14,61.48ZM54.81,480.81c-4.21,4.21-10.36,5.86-16.11,4.32-5.76-1.54-10.25-6.04-11.8-11.8-1.54-5.76.1-11.9,4.32-16.11L324.56,163.87l23.59,23.59L54.81,480.81ZM365.55,181.67l-35.19-35.19c-1.57-1.57-2.46-3.71-2.46-5.93s.88-4.36,2.46-5.93l4.57-4.57s.03-.03.04-.04l42.31-42.31c1.57-1.57,3.7-2.46,5.93-2.45,2.23,0,4.36.88,5.94,2.45l35.19,35.19c3.27,3.28,3.27,8.58,0,11.86l-46.93,46.93c-3.32,3.17-8.54,3.17-11.86,0Z"/>
</svg>