<?xml version="1.0" encoding="UTF-8"?>
<svg id="_Слой_1" data-name="Слой 1" xmlns="http://www.w3.org/2000/svg" viewBox="0 0 228.95 251.77">
  <defs>
    <style>
      .cls-1 {
        fill: #fff;
      }
    </style>
  </defs>
  <g>
    <path class="cls-1" d="m228.24,124.83c-6.75,3.62-14.17,6.19-22.03,7.46.07,1.79.11,3.54.11,5.33-.22,51.64-41.79,91.79-92.12,91.56-51.97-.22-92.38-42.09-91.64-94.29,1.49-49.73,41.68-89.66,92.27-89.48,4.73,0,9.36.37,13.87,1.08,2.01-7.64,5.33-14.8,9.66-21.18-7.46-1.6-15.21-2.46-23.11-2.5C51.45,22.45.04,74.01,0,136.94c-.04,63.68,51,114.83,114.53,114.83s114.16-51.19,114.42-113.67c0-4.47-.22-8.91-.71-13.27Z"/>
    <path class="cls-1" d="m125.64,110.74c0,6.42.05,12.84-.03,19.26-.02,1.78.48,3.06,1.76,4.33,9.71,9.61,19.37,19.27,29,28.96,4.58,4.61,5.01,10.86,1.19,15.55-3.8,4.67-10.65,5.51-15.44,1.86-.83-.63-1.58-1.36-2.32-2.1-10.78-10.76-21.51-21.57-32.33-32.28-2.88-2.85-4.28-6.03-4.24-10.14.12-14.78.03-29.56.06-44.34.01-6.34,3.69-10.57,9.9-11.53,6.14-.95,12.25,3.99,12.4,10.28.16,6.71.04,13.44.04,20.15.01,0,.02,0,.03,0Z"/>
  </g>
  <path class="cls-1" d="m174.81,121.92c-19.39-2.27-31.3-11.68-31.3-11.68l10.43-16.67s13.04,8.28,29.49,8.28c11.91,0,17.47-3.63,17.47-8.28s-6.12-9.07-20.98-14.52c-15.99-5.9-32.89-14.63-32.89-32.32,0-14.06,10.55-25.63,27.79-28.81V0h19.51v17.81c14.18,2.27,24.95,8.73,24.95,8.73l-9.98,16.67s-10.66-5.56-23.36-5.56c-11.46,0-16.44,4.08-16.44,8.17,0,3.86,4.31,8.62,20.3,14.18,17.35,6.12,33.57,15.76,33.57,33.68,0,14.74-11,25.06-29.03,28.01v17.13h-19.51v-16.9Z"/>
</svg>