<?xml version="1.0" encoding="UTF-8"?>
<svg id="_Слой_1" data-name="Слой 1" xmlns="http://www.w3.org/2000/svg" viewBox="0 0 150.09 251.06">
  <defs>
    <style>
      .cls-1 {
        fill: #fff;
      }
    </style>
  </defs>
  <path d="m62.86,91.86c12.48-9.79,25.91-5.02,30.7,7.02,6.27-4.17,13.01-5.43,20.01-2.33,6.91,3.06,10.59,8.73,11.67,16.3,7.12-2.32,13.42-1.37,18.95,3.27,3.65,3.07,5.91,6.98,5.9,11.88-.02,24.4-.55,48.79-4.7,72.9-3.13,18.18-12,33.08-28.03,42.85-10.78,6.57-23,7.54-35.32,7.26-13.2-.3-26.2-2.27-37.72-8.98C21.16,228.56,4.78,209.57.77,182.27c-2.35-16.03.45-31.34,12.04-43.78,2.71-2.91,6.26-5.02,9.29-7.66.83-.73,1.68-2.03,1.66-3.05-.31-18.39-.7-36.78-1.26-55.17-.03-1.13-1.38-2.56-2.49-3.26C2.48,58.19-2.76,35.09,8.32,17.47,17.27,3.23,34.92-3.31,51.03,1.64c16.43,5.05,27.25,20.25,26.59,37.26-.43,11.2-5.01,20.35-13.52,27.53-1.6,1.35-2.15,2.67-2.04,4.73.37,6.72.54,13.46.8,20.71Zm-38.3,48.61c-.46-.15-.92-.31-1.37-.46-2.46,2.53-5.24,4.81-7.31,7.62-7.17,9.72-8.01,20.93-6.74,32.42,2.38,21.51,14.51,37.23,31.1,49.72,15.28,11.51,33.2,13.86,51.8,12.62,11.42-.76,21.96-3.96,29.91-12.63,8.31-9.07,13.9-19.59,15.68-32.01,3.18-22.15,3.64-44.44,4.36-66.74.26-8.12-6.89-12.98-14.26-10.21-1.74.65-2.7,1.39-2.57,3.46.18,2.82.12,5.66-.04,8.49-.12,2.25-1.49,3.6-3.75,3.79-2.26.18-3.77-.91-4.26-3.15-.23-1.05-.31-2.15-.32-3.23-.03-5.23.24-10.47-.14-15.67-.18-2.45-1.08-5.18-2.53-7.14-2.85-3.86-7.07-4.99-11.67-3.56-4.9,1.51-7.41,5.12-7.88,10.15-.27,2.82-1.61,4.62-4.51,4.45-2.76-.17-3.84-2.18-3.9-4.77-.07-2.83.04-5.67-.12-8.49-.35-6.14-3.93-10-9.31-10.22-5.46-.23-9.7,3.53-10.64,9.42-.72,4.51-1.48,9.01-2.16,13.53-.41,2.76-1.48,4.99-4.67,4.73-3.16-.27-3.86-2.7-3.95-5.43-.23-7.29-.48-14.58-.74-21.87-.66-18.49-1.3-36.99-1.99-55.48-.21-5.52-3.03-9.71-7.41-11.26-4.3-1.52-9.03-.32-11.88,3.06-2.54,3.02-3.04,6.61-2.96,10.41.7,31.99,1.36,63.99,2.03,95.98.21,10.01.46,20.02.61,30.04.04,3-1.67,4.98-4.08,4.88-2.78-.11-3.99-1.94-4.24-4.49-.13-1.3-.1-2.61-.1-3.92,0-8,0-16,0-24ZM61.06,57.04c8.51-7.4,10.56-21.6,5.39-32.1-6.05-12.31-19.04-18.67-32.6-15.96-12.41,2.48-22.36,14.21-22.99,27.12-.48,9.81,5.29,21.76,11.41,23.73,0-1.61,0-3.24,0-4.87.02-6.19-.66-12.49.22-18.56,2.06-14.35,17.13-21.42,29.09-13.97,6.83,4.25,9.28,10.95,9.46,18.64.11,5.07.02,10.14.02,15.96Z"/>
  <path class="cls-1" d="m24.57,140.47c0,8,0,16,0,24,0,1.31-.03,2.62.1,3.92.25,2.56,1.45,4.38,4.24,4.49,2.41.1,4.13-1.88,4.08-4.88-.15-10.01-.4-20.02-.61-30.04-.67-31.99-1.33-63.99-2.03-95.98-.08-3.8.41-7.39,2.96-10.41,2.85-3.38,7.58-4.58,11.88-3.06,4.38,1.55,7.21,5.74,7.41,11.26.69,18.49,1.34,36.98,1.99,55.48.26,7.29.51,14.58.74,21.87.09,2.73.79,5.17,3.95,5.43,3.19.27,4.25-1.96,4.67-4.73.68-4.52,1.44-9.02,2.16-13.53.94-5.89,5.18-9.65,10.64-9.42,5.38.22,8.95,4.08,9.31,10.22.16,2.82.06,5.66.12,8.49.06,2.58,1.14,4.6,3.9,4.77,2.9.17,4.24-1.63,4.51-4.45.47-5.02,2.98-8.63,7.88-10.15,4.6-1.42,8.82-.3,11.67,3.56,1.45,1.96,2.35,4.69,2.53,7.14.38,5.2.1,10.44.14,15.67,0,1.08.09,2.18.32,3.23.49,2.24,2,3.33,4.26,3.15,2.26-.18,3.63-1.54,3.75-3.79.15-2.82.22-5.67.04-8.49-.13-2.07.83-2.8,2.57-3.46,7.37-2.76,14.52,2.09,14.26,10.21-.73,22.31-1.19,44.6-4.36,66.74-1.78,12.43-7.37,22.95-15.68,32.01-7.95,8.66-18.48,11.86-29.91,12.63-18.6,1.24-36.52-1.11-51.8-12.62-16.58-12.49-28.72-28.21-31.1-49.72-1.27-11.49-.43-22.7,6.74-32.42,2.07-2.81,4.85-5.09,7.31-7.62.46.15.92.31,1.37.46Z"/>
  <path class="cls-1" d="m61.06,57.04c0-5.82.09-10.89-.02-15.96-.17-7.69-2.63-14.39-9.46-18.64-11.96-7.45-27.03-.38-29.09,13.97-.87,6.07-.19,12.36-.22,18.56,0,1.63,0,3.26,0,4.87-6.12-1.97-11.89-13.92-11.41-23.73.63-12.9,10.58-24.64,22.99-27.12,13.56-2.71,26.55,3.65,32.6,15.96,5.16,10.5,3.11,24.69-5.39,32.1Z"/>
</svg>