<?xml version="1.0" encoding="UTF-8"?>
<svg id="_Слой_1" data-name="Слой 1" xmlns="http://www.w3.org/2000/svg" viewBox="0 0 202.76 255.26">
  <defs>
    <style>
      .cls-1 {
        fill: #fff;
      }
    </style>
  </defs>
  <path class="cls-1" d="m87.35,0C96.7,0,106.06,0,115.42,0c.41.13.8.31,1.22.4,9.73,1.96,15.93,7.56,18.62,16.71,1.06,3.59,2.04,7.21,2.87,10.85.34,1.5.93,2.08,2.57,2,2.68-.13,5.37-.12,8.05,0,8.59.41,15.47,4.02,19.5,11.29,1.75,3.15,3.64,4.06,6.94,3.65,1.28-.16,2.63-.22,3.89.01,3.45.64,7.15.89,10.25,2.3,9.31,4.24,13.43,11.78,13.43,21.52,0,38.38,0,76.76,0,115.13,0,15.95,0,31.9,0,47.85,0,7.99-2.91,14.77-9.91,19.23-3.21,2.05-7.23,2.91-10.89,4.31H20.81c-2.46-.74-5.07-1.18-7.34-2.26C4.24,248.6.02,241.2.02,231.45c0-39.62,0-79.25,0-118.87,0-14.79-.04-29.57.01-44.36.04-11.24,6.69-19.94,17.78-22.52,4.05-.94,8.42-.66,12.64-.79,1.44-.04,2.25-.34,2.93-1.72,4.11-8.33,11.09-12.69,20.64-13.23,2.5-.14,5.03-.19,7.53,0,2.08.16,2.85-.62,3.24-2.49.63-3.09,1.55-6.12,2.32-9.19,1.34-5.32,3.74-10.22,8.55-13.24C79.19,2.83,83.43,1.64,87.35,0ZM31.2,59.83c-2.21,0-4.1,0-5.99,0-6.78,0-9.6,2.71-9.6,9.24,0,54,0,107.99,0,161.99,0,6.53,2.81,9.25,9.59,9.25,50.76,0,101.52,0,152.28,0,6.97,0,9.69-2.63,9.69-9.38,0-53.91,0-107.83,0-161.74,0-.83.03-1.67-.05-2.49-.35-3.56-3.14-6.47-6.83-6.76-2.81-.22-5.66-.04-8.71-.04,0,2.17,0,4.15,0,6.12-.02,5.88-2.98,8.76-9.05,8.77-9.18.02-18.36,0-27.54,0-31.36,0-62.71,0-94.07,0-6.94,0-9.69-2.67-9.7-9.4,0-1.74,0-3.47,0-5.56Zm124.76-.09c0-2.41.02-4.56,0-6.71-.07-5.14-3.2-8.12-8.64-8.15-4.5-.03-9,.01-13.51-.01-5.15-.03-7.81-2.01-9.08-6.81-1.43-5.38-2.79-10.78-4.22-16.16-1.31-4.93-3.97-6.91-9.28-6.93-6.49-.02-12.99-.01-19.48,0-5.62,0-8.2,1.96-9.57,7.21-1.38,5.31-2.75,10.62-4.16,15.92-1.28,4.78-3.94,6.75-9.11,6.78-4.68.02-9.35-.04-14.03.02-4.06.05-7.32,2.34-7.83,5.96-.4,2.9-.08,5.89-.08,8.89h108.99Z"/>
  <path class="cls-1" d="m54.59,117.19c8.55-8.24,16.74-16.12,24.9-24.01,2.43-2.35,5.15-3.61,8.64-2.52,5.15,1.61,7.07,7.34,3.85,11.51-.51.66-1.13,1.26-1.74,1.84-9.67,9.28-19.34,18.56-29.02,27.83-4.58,4.38-8.66,4.39-13.22.03-4.79-4.57-9.63-9.09-14.3-13.76-4.5-4.5-2.5-11.34,3.62-12.71,2.97-.67,5.46.32,7.54,2.33,3.16,3.05,6.3,6.12,9.72,9.45Z"/>
  <path class="cls-1" d="m54.41,161.99c1.03-.94,1.72-1.55,2.38-2.18,7.6-7.28,15.18-14.57,22.79-21.83,3.77-3.59,8.45-3.8,11.72-.62,3.27,3.18,3,7.61-.78,11.24-9.9,9.53-19.82,19.05-29.76,28.54-4.01,3.82-8.29,3.83-12.29.06-4.81-4.55-9.58-9.13-14.33-13.74-3.72-3.61-3.91-8.12-.57-11.24,3.28-3.05,7.86-2.84,11.54.65,3.07,2.92,6.05,5.93,9.28,9.12Z"/>
  <path class="cls-1" d="m54.83,207.29c1.06-1.32,1.7-2.33,2.54-3.14,7.39-7.13,14.79-14.24,22.23-21.31,3.77-3.59,8.46-3.79,11.72-.6,3.2,3.13,3.01,7.56-.63,11.06-9.95,9.6-19.93,19.17-29.94,28.71-4,3.82-8.29,3.81-12.29.03-4.81-4.55-9.58-9.13-14.33-13.74-3.71-3.6-3.89-8.13-.54-11.24,3.28-3.05,7.86-2.82,11.54.68,3.07,2.92,6.04,5.94,9.69,9.55Z"/>
  <path class="cls-1" d="m140.39,105.2c7.45,0,14.9-.02,22.35,0,5.28.02,8.81,3.05,8.8,7.49-.01,4.44-3.55,7.45-8.84,7.45-14.9.02-29.8.02-44.7,0-5.28,0-8.81-3.05-8.8-7.49.01-4.44,3.55-7.44,8.84-7.45,7.45-.02,14.9,0,22.35,0Z"/>
  <path class="cls-1" d="m140.63,150.07c7.36,0,14.73-.02,22.09,0,5.29.01,8.82,3.03,8.83,7.47,0,4.44-3.53,7.47-8.82,7.48-14.9.02-29.8.02-44.7,0-5.29,0-8.82-3.03-8.83-7.47,0-4.44,3.53-7.46,8.82-7.48,7.54-.02,15.07,0,22.61,0Z"/>
  <path class="cls-1" d="m140.6,194.94c7.36,0,14.73-.01,22.09,0,5.3.01,8.84,3,8.86,7.44.02,4.44-3.52,7.5-8.79,7.5-14.9.02-29.8.02-44.7,0-5.3,0-8.84-3-8.86-7.44-.02-4.44,3.52-7.49,8.79-7.5,7.54-.02,15.07,0,22.61,0Z"/>
  <path class="cls-1" d="m109.16,37.33c.04,4.06-3.47,7.49-7.71,7.52-4.24.04-7.81-3.32-7.85-7.39-.04-4.06,3.47-7.49,7.71-7.52,4.24-.04,7.81,3.32,7.85,7.39Z"/>
</svg>