<?xml version="1.0" encoding="UTF-8"?>
<svg id="_Слой_1" data-name="Слой 1" xmlns="http://www.w3.org/2000/svg" viewBox="0 0 177.88 250.79">
  <defs>
    <style>
      .cls-1 {
        fill: #fff;
      }
    </style>
  </defs>
  <path class="cls-1" d="m56.41,93.65v67.33h-12.72v-54.28c-1.21,0-2.19,0-3.16,0-7.23,0-14.45.04-21.68-.01-8.16-.06-14.69-4.35-17.5-11.79-2.84-7.52-1.11-14.19,4.57-19.82C29.2,51.98,52.49,28.89,75.8,5.83c7.81-7.72,18.82-7.78,26.53-.09,23.22,23.16,46.42,46.34,69.57,69.56,9.39,9.42,7.45,23.91-4,29.38-2.66,1.27-5.85,1.82-8.83,1.93-7.12.27-14.26.09-21.4.09-.91,0-1.82,0-3.05,0v3.5c0,20.56,0,41.13,0,61.69,0,10.47-5.44,15.87-15.96,15.87-23.9,0-47.81,0-71.71,0h-3.16v-12.98h78.26v-81.14c1.43,0,2.51,0,3.58,0,10.65,0,21.31,0,31.96,0,1.11,0,2.24.03,3.32-.17,3.98-.73,5.55-4.9,3.06-8.07-.57-.72-1.25-1.36-1.91-2.02-22.53-22.54-45.07-45.07-67.61-67.6-4.21-4.21-7.15-4.21-11.31.02C60.68,38.65,38.23,61.52,15.73,84.35c-1.6,1.62-3,3.31-2.04,5.59,1.04,2.48,3.11,3.74,5.95,3.72,11.12-.05,22.24-.02,33.35-.02,1.09,0,2.18,0,3.42,0Z"/>
  <path class="cls-1" d="m90.07,222.37c-13.42,0-26.85.03-40.27-.02-5.45-.02-8.57-3.52-7.87-8.7.38-2.83,1.96-4.78,4.66-5.66,1.12-.37,2.36-.5,3.55-.5,26.57-.03,53.14-.03,79.71-.01,4.7,0,7.59,2.11,8.26,5.82.9,4.97-2.14,8.86-7.21,9.03-3.61.12-7.22.04-10.83.04-10,0-20,0-30,0Z"/>
  <path class="cls-1" d="m89.48,250.79c-9.72,0-19.45.01-29.17,0-4.4,0-6.68-2.06-6.73-5.95-.05-3.9,2.52-6.35,6.73-6.35,19.63-.01,39.26-.01,58.9,0,4.03,0,6.69,2.48,6.69,6.15,0,3.66-2.66,6.15-6.69,6.16-9.91.02-19.82,0-29.73,0Z"/>
</svg>