<?xml version="1.0" encoding="UTF-8"?>
<svg id="_Слой_1" data-name="Слой 1" xmlns="http://www.w3.org/2000/svg" viewBox="0 0 330.18 465.53">
  <defs>
    <style>
      .cls-1 {
        fill: #fff;
      }
    </style>
  </defs>
  <g>
    <path class="cls-1" d="m104.72,173.83v124.99h-23.62v-100.76c-2.25,0-4.06,0-5.87,0-13.41,0-26.83.08-40.24-.03-15.14-.12-27.27-8.07-32.49-21.88-5.28-13.97-2.06-26.33,8.49-36.79C54.21,96.5,97.43,53.63,140.7,10.81c14.49-14.34,34.93-14.44,49.25-.17,43.11,42.98,86.17,86.01,129.14,129.13,17.43,17.49,13.84,44.38-7.43,54.54-4.93,2.35-10.86,3.37-16.38,3.59-13.22.51-26.48.16-39.72.17-1.69,0-3.37,0-5.67,0v6.49c0,38.17,0,114.52,0,114.52l-29.63,29.46s-88.74,0-133.11,0h-5.87v-24.09h145.27v-150.62c2.66,0,4.65,0,6.65,0,19.78,0,39.56,0,59.33-.01,2.06,0,4.16.05,6.17-.32,7.39-1.36,10.3-9.1,5.68-14.97-1.06-1.34-2.33-2.53-3.54-3.74-41.83-41.83-83.66-83.66-125.49-125.48-7.81-7.81-13.27-7.82-20.99.04-41.71,42.42-83.4,84.87-125.16,127.24-2.96,3.01-5.57,6.15-3.79,10.37,1.94,4.6,5.76,6.94,11.05,6.91,20.64-.09,41.27-.03,61.91-.03,2.02,0,4.05,0,6.36,0Z"/>
    <path class="cls-1" d="m167.19,412.77c-24.92,0-49.84.06-74.75-.03-10.13-.04-15.9-6.54-14.62-16.15.7-5.24,3.64-8.87,8.65-10.51,2.08-.68,4.39-.93,6.59-.94,49.32-.05,98.64-.06,147.96-.02,8.72,0,14.09,3.91,15.34,10.81,1.67,9.23-3.96,16.45-13.39,16.77-6.69.23-13.4.07-20.1.07-18.56,0-37.12,0-55.68,0Z"/>
    <path class="cls-1" d="m166.1,465.52c-18.05,0-36.1.03-54.15-.01-8.16-.02-12.39-3.82-12.49-11.05-.09-7.24,4.67-11.79,12.48-11.8,36.44-.02,72.88-.02,109.32,0,7.48,0,12.41,4.6,12.41,11.41,0,6.79-4.93,11.41-12.41,11.43-18.39.04-36.79.01-55.18.01Z"/>
  </g>
  <rect class="cls-1" x="81.1" y="298.82" width="23.6" height="25.63"/>
  <polygon class="cls-1" points="249.89 348.53 249.89 319.07 220.26 348.53 249.89 348.53"/>
</svg>